# xmcd CD database file
# Copyright (C) 1993-1996 Ti Kan
#
# Track frame offsets:
#	183
#	12408
#	32808
#	52120
#	67220
#	87133
#	97308
#	109608
#	125595
#	136133
#	144683
#	174358
#	181408
#	192758
#	215658
#	230570
#	259658
#	288445
#
# Disc length: 3968 seconds
#
# Revision: 1
# Processed by: cddbd v1.4b41PL1 Copyright (c) Steve Scherf et al.
# Submitted via: CDValet v3.31 - Copyright (c) 1997 Greg Leichner
#
DISCID=140f7e12
DTITLE=Synthesizer Sequences - Great Classical Themes
DYEAR=1900
DGENRE=
TTITLE0=Also Sprach Zarathustra (2001)
TTITLE1=Reverie
TTITLE2=Ases Tot
TTITLE3=Gymnopedie
TTITLE4=Bolero
TTITLE5=Firebird Suite
TTITLE6=Gnossjenne
TTITLE7=Bydlo
TTITLE8=Petite Ouverture A Dancer
TTITLE9=Le Petit Negre
TTITLE10=Rhapsody In Blue
TTITLE11=Brandenburg Concerto No. 3
TTITLE12=La Fille Aux Cheveux De Lin
TTITLE13=Alcarrondas
TTITLE14=Sarabande
TTITLE15=Morgenstimmung
TTITLE16=Danse Estatique
TTITLE17=The Greate Gate Of Kiev
EXTD=
EXTT0=
EXTT1=
EXTT2=
EXTT3=
EXTT4=
EXTT5=
EXTT6=
EXTT7=
EXTT8=
EXTT9=
EXTT10=
EXTT11=
EXTT12=
EXTT13=
EXTT14=
EXTT15=
EXTT16=
EXTT17=
PLAYORDER=
